<svg width="256" height="256" viewBox="0 0 256 256" fill="none" xmlns="http://www.w3.org/2000/svg">
<path d="M152.12 90.8798C151.62 62.6798 136.28 34.8798 111.08 16.5598C101.889 31.5554 97.202 48.877 97.5778 66.4611C97.9537 84.0452 103.376 101.151 113.2 115.74" fill="#FFC2DD"/>
<path d="M113.199 115.74C112.799 116 110.879 114 107.999 110C104.093 104.11 100.986 97.7274 98.7594 91.0197C95.4355 80.9638 93.8857 70.4065 94.1794 59.8197C94.4222 53.5508 95.2796 47.321 96.7394 41.2197C98.3246 34.6619 100.639 28.3023 103.639 22.2597C104.236 20.9251 104.904 19.6232 105.639 18.3597L107.799 14.5797C108.038 14.1593 108.358 13.7901 108.739 13.4932C109.121 13.1964 109.557 12.9776 110.023 12.8494C110.49 12.7213 110.977 12.6862 111.456 12.7463C111.936 12.8064 112.399 12.9605 112.819 13.1997L113.179 13.4397C118.17 17.126 122.852 21.2128 127.179 25.6597C131.141 29.8352 134.759 34.3231 137.999 39.0797C143.404 47.0529 147.521 55.8268 150.199 65.0797C152.021 71.2247 152.99 77.5909 153.079 83.9997C153.079 88.4997 152.559 90.9397 152.119 90.9397C151.679 90.9397 151.119 88.5397 150.279 84.2797C149.129 78.2958 147.469 72.4212 145.319 66.7197C142.11 58.2709 137.778 50.2926 132.439 42.9997C129.253 38.7031 125.764 34.6395 121.999 30.8397C117.891 26.7911 113.493 23.0478 108.839 19.6397L114.319 18.5597L112.319 22.0597C111.628 23.2246 111 24.4264 110.439 25.6597C107.697 31.2146 105.539 37.0391 103.999 43.0397C102.559 48.6518 101.622 54.3811 101.199 60.1597C100.648 70.0249 101.592 79.9167 103.999 89.4997C108.139 106 114.339 115.06 113.199 115.74Z" fill="black"/>
<path d="M201.52 73.8801C189.753 63.3387 176.264 54.8961 161.64 48.9201C150.46 44.3601 138.2 41.2401 126.32 43.4401C113.16 45.8801 102.04 54.5001 92.32 63.8001C80.52 75.2201 69.96 88.4001 64.2 103.8C59.7 115.8 58.2 129.16 50.68 139.6C44.8 147.86 35.9 153.36 27.88 159.6C19.86 165.84 12.14 173.6 10.46 183.6C8.70001 194.08 13.96 204.48 20.46 212.94C26.1878 220.867 33.5287 227.493 42 232.38C50.5469 237.235 60.5116 238.981 70.2 237.32C87.04 233.98 98.94 219.32 114.04 211.04C126.04 204.52 140.04 202.3 152.62 197.04C175.076 187.401 192.822 169.289 202 146.64C210.943 123.971 211.812 98.9142 204.46 75.6801" fill="#FFC2DD"/>
<path d="M154.159 73.9999C141.159 80.1999 126.579 84.1398 113.039 78.7398C107.139 76.3998 101.039 72.3598 99.9589 66.0998C98.7989 59.0398 104.639 52.8199 110.599 48.8399C130.059 35.8999 154.359 34.8398 177.119 40.1198C199.879 45.3998 219.999 68.9198 222.859 92.0998C238.219 95.1598 244.099 117.12 241.759 132.6C240.479 141.12 235.659 148.9 235.159 157.5C234.379 171.18 244.579 183.22 246.059 196.84C246.615 202.66 245.585 208.522 243.078 213.804C240.57 219.086 236.68 223.591 231.819 226.84C222.039 233.18 202.939 238.2 192.879 232.32C185.779 239.42 178.879 243.52 167.239 239.7C161.509 237.603 156.576 233.771 153.127 228.738C149.678 223.704 147.885 217.72 147.999 211.62C148.328 205.521 150.395 199.644 153.957 194.682C157.519 189.721 162.426 185.882 168.099 183.62C166.55 174.524 167.194 165.19 169.977 156.393C172.76 147.596 177.601 139.59 184.099 133.04C189.819 127.38 192.599 116.54 195.419 109.04C199.599 97.9398 196.459 91.1999 186.079 85.4799C175.699 79.7599 177.779 73.4798 165.919 73.2398" fill="#7E53C1"/>
<path d="M35.2385 148C25.2385 155.42 12.5185 176.7 12.5185 176.7C8.11851 189.68 11.2985 205.24 21.3385 214.56C25.3385 218.24 30.1185 220.88 34.1185 224.56C37.3185 227.46 39.9985 230.98 43.6985 233.2C47.596 235.296 52.0007 236.266 56.4185 236C69.8985 235.76 82.2185 228.76 93.5985 221.54C100.519 217.16 103.379 216.62 107.839 209.76C112.299 202.9 113.639 193.34 108.899 186.66C107.513 184.705 105.703 183.091 103.604 181.937C101.504 180.783 99.1708 180.121 96.7785 180C98.7091 177.691 100.145 175.01 100.999 172.124C101.852 169.238 102.104 166.207 101.739 163.22C101.316 160.233 100.113 157.411 98.2523 155.038C96.3913 152.664 93.9377 150.823 91.1385 149.7C88.3136 148.69 85.2409 148.606 82.3647 149.458C79.4885 150.31 76.9578 152.054 75.1385 154.44C73.5585 148.44 71.6185 142.08 66.4585 138.78C61.2985 135.48 53.8985 136.54 48.5985 139.96C43.2985 143.38 38.9585 142.76 35.3185 147.96" fill="#FF85C6"/>
<path d="M154.739 74.9797C154.839 75.2197 153.459 76.0397 150.739 77.3597C149.359 77.9997 147.559 78.6197 145.459 79.3597C142.999 80.1692 140.495 80.837 137.959 81.3597L135.739 81.7997L133.359 81.9997L130.859 82.2797L128.219 82.3797C124.283 82.5363 120.343 82.18 116.499 81.3197C111.921 80.3863 107.601 78.4687 103.839 75.6997C99.4804 72.4723 96.231 67.9721 94.5387 62.8197V62.8197C94.4084 62.4111 94.3803 61.9768 94.4571 61.5549C94.5338 61.1329 94.7129 60.7363 94.9787 60.3997L97.3587 57.4197L98.5787 55.8997C99.0187 55.4197 99.4787 54.9597 99.9387 54.4797L102.719 51.6397L105.819 48.9997C110.219 45.4261 115.067 42.441 120.239 40.1197C131.597 35.1739 143.85 32.6143 156.239 32.5997C159.465 32.5997 162.732 32.6997 166.039 32.8997C167.679 33.0397 169.339 33.2197 170.999 33.3797L176.099 34.2597C182.966 35.8168 189.55 38.4278 195.619 41.9997C201.93 45.6364 207.644 50.2235 212.559 55.5997C217.739 61.1826 221.739 67.7538 224.319 74.9197C226.426 80.7819 227.112 87.0608 226.319 93.2397L223.399 88.9797C227.369 89.9298 231.039 91.8545 234.079 94.5797C236.944 97.158 239.281 100.269 240.959 103.74C244.067 110.205 245.687 117.286 245.699 124.46C245.747 127.916 245.439 131.367 244.779 134.76C244.103 138.039 243.118 141.246 241.839 144.34C239.539 150.22 237.299 155.46 237.439 160.5C237.749 165.78 239.195 170.93 241.679 175.6C243.959 180.54 246.619 185.42 248.439 190.68C249.4 193.298 250.07 196.015 250.439 198.78C250.767 201.476 250.767 204.203 250.439 206.9C249.795 211.905 248.098 216.718 245.459 221.02C243.092 224.948 239.948 228.351 236.219 231.02C232.917 233.245 229.305 234.97 225.499 236.14C219.571 238.059 213.339 238.86 207.119 238.5C203.184 238.294 199.338 237.251 195.839 235.44C195.259 235.1 194.739 234.82 194.339 234.52L193.359 233.68C192.859 233.22 192.639 232.94 192.719 232.84C192.799 232.74 193.159 232.84 193.759 233.06L194.859 233.54C195.299 233.72 195.839 233.88 196.439 234.1C199.918 235.227 203.563 235.754 207.219 235.66C213.024 235.494 218.758 234.344 224.179 232.26C227.5 231.034 230.631 229.344 233.479 227.24C236.545 224.835 239.101 221.843 240.999 218.44C243.094 214.708 244.388 210.58 244.799 206.32C245.213 201.725 244.528 197.097 242.799 192.82C241.079 188.2 238.439 183.58 235.899 178.44C232.875 172.961 231.093 166.884 230.679 160.64C230.615 157.285 231.094 153.941 232.099 150.74C233.019 147.62 234.099 144.74 235.259 141.84C236.347 139.124 237.178 136.311 237.739 133.44C238.265 130.531 238.493 127.575 238.419 124.62C238.386 118.583 237.02 112.628 234.419 107.18C233.251 104.575 231.52 102.261 229.352 100.404C227.184 98.5474 224.632 97.1935 221.879 96.4397C220.952 96.2158 220.14 95.6566 219.601 94.87C219.062 94.0834 218.833 93.1251 218.959 92.1797C219.548 87.1995 218.959 82.1504 217.239 77.4397C214.992 71.2443 211.531 65.5598 207.059 60.7197C202.682 55.8986 197.597 51.7713 191.979 48.4797C186.575 45.281 180.714 42.9272 174.599 41.4997L169.999 40.6197L165.379 40.0997C162.299 39.8464 159.245 39.713 156.219 39.6997C144.783 39.5487 133.433 41.6909 122.839 45.9997C113.656 49.8452 105.594 55.9472 99.3987 63.7397L99.8187 61.2797C101.035 65.4557 103.507 69.1563 106.899 71.8797C110.041 74.3863 113.682 76.1932 117.579 77.1797C121.053 78.1456 124.634 78.6763 128.239 78.7597H130.699L133.059 78.6597L135.319 78.5597L137.459 78.2997C140.239 78.0597 142.679 77.4797 144.819 77.1197C146.959 76.7597 148.819 76.2197 150.179 75.8397C153.059 75.0597 154.639 74.7397 154.739 74.9797Z" fill="black"/>
<path d="M195.759 86C196.179 85.86 197.859 88.46 199.079 94C199.779 97.3731 199.947 100.835 199.579 104.26C199.017 108.76 197.84 113.161 196.079 117.34C193.992 122.418 191.19 127.173 187.759 131.46C184.179 136.06 180.259 140.44 176.839 145.46C175.073 148.043 173.437 150.713 171.939 153.46C170.483 156.16 169.361 159.028 168.599 162C166.945 168.224 167.077 174.788 168.979 180.94L169.699 182.94L170.559 184.94V185.08C170.76 185.541 170.868 186.036 170.876 186.539C170.885 187.041 170.793 187.541 170.607 188.007C170.421 188.474 170.144 188.9 169.793 189.259C169.441 189.618 169.022 189.904 168.559 190.1L168.259 190.22C162.861 192.309 158.297 196.11 155.267 201.041C152.236 205.972 150.905 211.761 151.479 217.52C152.061 222.61 154.01 227.448 157.119 231.52C159.876 234.979 163.703 237.427 167.999 238.48C168.966 238.734 169.948 238.928 170.939 239.06C171.979 239.193 172.993 239.3 173.979 239.38C175.797 239.507 177.621 239.507 179.439 239.38C182.248 239.293 184.994 238.525 187.439 237.14C191.439 234.68 192.699 231.92 193.259 232.28C193.479 232.38 193.379 233.14 192.879 234.46C192.027 236.394 190.749 238.11 189.139 239.48C186.495 241.627 183.313 243.01 179.939 243.48C177.916 243.816 175.87 243.99 173.819 244C172.739 244 171.646 244 170.539 244C169.311 243.941 168.089 243.801 166.879 243.58C161.308 242.572 156.245 239.702 152.519 235.44C148.375 230.589 145.679 224.671 144.739 218.36C143.712 211.213 145.121 203.928 148.739 197.68C152.502 190.827 158.608 185.558 165.939 182.84L163.779 188.12L162.679 185.68C162.379 184.84 162.039 184.02 161.759 183.16C159.402 175.638 159.27 167.595 161.379 160C162.349 156.429 163.767 152.995 165.599 149.78C167.291 146.855 169.14 144.024 171.139 141.3C175.019 135.96 179.319 131.5 182.879 127.3C186.184 123.571 188.982 119.422 191.199 114.96C193.055 111.295 194.465 107.421 195.399 103.42C196.036 100.39 196.291 97.293 196.159 94.2C195.899 89.12 195.199 86.18 195.759 86Z" fill="black"/>
<path d="M150.939 200.68C151.459 200.94 150.779 202.98 150.299 206.68C149.647 211.69 150.195 216.784 151.899 221.54C152.992 224.916 154.874 227.984 157.388 230.488C159.903 232.992 162.978 234.861 166.359 235.94C170.25 237.307 174.441 237.583 178.479 236.74C182.778 235.75 186.701 233.542 189.779 230.38C190.356 229.804 191.103 229.429 191.91 229.31C192.716 229.191 193.54 229.335 194.259 229.72L194.559 229.88L196.279 230.82C200.613 232.519 205.279 233.203 209.919 232.82C214.492 232.526 219.013 231.673 223.379 230.28C227.248 229.109 230.887 227.283 234.139 224.88C236.89 222.697 239.238 220.051 241.079 217.06C243.855 212.485 245.539 207.332 245.999 202C246.359 198.22 246.199 196 246.779 195.86C247.359 195.72 248.399 197.86 248.979 201.86C249.636 207.855 248.546 213.911 245.839 219.3C243.962 223.085 241.383 226.479 238.239 229.3C234.545 232.452 230.3 234.893 225.719 236.5C220.798 238.298 215.659 239.428 210.439 239.86C204.546 240.476 198.593 239.638 193.099 237.42C192.179 236.98 191.299 236.44 190.399 235.96L195.159 235.46C191.073 239.758 185.792 242.733 179.999 244C174.629 245.018 169.081 244.491 163.999 242.48C161.665 241.595 159.444 240.441 157.379 239.04C155.446 237.6 153.716 235.905 152.239 234C149.164 230.069 147.119 225.434 146.287 220.513C145.456 215.593 145.866 210.543 147.479 205.82C148.939 202 150.559 200.46 150.939 200.68Z" fill="black"/>
<path d="M161.199 50.8598C161.639 52.4598 152.599 55.9398 144.179 63.7998C135.759 71.6598 131.359 80.1998 129.819 79.6198C129.119 79.3598 129.279 76.7198 130.859 72.8198C133.06 67.7967 136.286 63.2884 140.329 59.5828C144.372 55.8773 149.143 53.0561 154.339 51.2998C158.359 49.9998 160.999 50.1398 161.199 50.8598Z" fill="black"/>
<path d="M143.079 48.3002C143.399 49.9402 134.239 52.6402 125.679 60.0202C117.119 67.4002 112.779 75.8002 111.219 75.2202C110.519 74.9602 110.659 72.3402 112.259 68.5002C114.503 63.5486 117.821 59.1584 121.972 55.6474C126.123 52.1364 131.003 49.5926 136.259 48.2002C140.339 47.2602 142.939 47.5802 143.079 48.3002Z" fill="black"/>
<path d="M211.759 130.5C210.319 129.62 216.899 117.76 218.779 101.66C220.659 85.5602 217.459 72.4802 219.079 71.9802C219.779 71.7602 221.619 74.8002 223.079 80.2802C223.929 83.5024 224.478 86.7965 224.719 90.1202C225.328 98.3008 224.302 106.521 221.699 114.3C220.65 117.457 219.311 120.51 217.699 123.42C214.919 128.4 212.379 130.9 211.759 130.5Z" fill="black"/>
<path d="M246 208.8C245.16 208.62 245.46 205.16 244.64 199.94C243.794 193.229 241.067 186.895 236.774 181.668C232.481 176.441 226.798 172.535 220.38 170.4C215.4 168.62 211.96 168.26 211.94 167.38C211.92 166.5 215.48 165.54 221.38 166.48C229.168 167.819 236.217 171.909 241.245 178.005C246.273 184.101 248.947 191.799 248.78 199.7C248.56 205.68 246.76 208.98 246 208.8Z" fill="black"/>
<path d="M192.218 200.761C192.218 201.481 188.838 202.001 183.718 200.481C177.006 198.335 171.222 193.971 167.316 188.106C163.409 182.241 161.612 175.222 162.218 168.201C162.778 162.901 164.538 160.041 165.218 160.201C165.898 160.361 165.758 163.501 166.258 168.201C166.745 174.181 168.747 179.94 172.074 184.933C175.402 189.926 179.946 193.99 185.278 196.741C189.398 199.001 192.338 200.001 192.218 200.761Z" fill="black"/>
<path d="M226.839 232.82C227.099 233.5 224.459 235.34 219.559 236.82C216.677 237.643 213.712 238.14 210.719 238.3C207.016 238.467 203.306 238.164 199.679 237.4C193.063 236.013 186.918 232.941 181.839 228.48C178.059 225 176.559 222.18 177.079 221.7C177.599 221.22 180.199 222.86 184.239 225.22C189.406 228.272 195.022 230.493 200.879 231.8C204.101 232.469 207.371 232.877 210.659 233.02C213.387 233.097 216.118 233.031 218.839 232.82C223.539 232.44 226.579 232 226.839 232.82Z" fill="black"/>
<path d="M34.8985 228.621C35.2585 228.181 37.0985 229.201 40.4385 230.521C45.1013 232.323 50.0596 233.238 55.0585 233.221C58.4811 233.213 61.8933 232.844 65.2385 232.121C69.1044 231.214 72.8851 229.976 76.5385 228.421C85.0075 224.609 93.0518 219.916 100.538 214.421C104.718 211.541 108.878 208.701 113.038 206.101C115.14 204.745 117.324 203.523 119.578 202.441C121.762 201.413 124.014 200.537 126.318 199.821C130.758 198.421 134.998 197.601 138.778 196.781C142.266 196.042 145.712 195.114 149.099 194.001C161.519 190.181 167.338 184.261 168.138 185.001C168.498 185.301 167.598 187.341 164.818 190.121C160.809 193.92 156.13 196.945 151.019 199.041C147.565 200.549 144.009 201.812 140.379 202.821C136.539 203.921 132.558 204.941 128.638 206.381C126.647 207.095 124.703 207.937 122.818 208.901C120.847 209.929 118.938 211.071 117.098 212.321C113.098 214.901 109.098 217.721 104.898 220.621C96.942 226.476 88.2723 231.295 79.0985 234.961C74.9685 236.51 70.6939 237.642 66.3385 238.341C62.4969 238.901 58.6013 238.988 54.7385 238.601C49.1234 238.128 43.7174 236.251 39.0185 233.141C35.7985 230.841 34.5985 228.981 34.8985 228.621Z" fill="black"/>
<path d="M78.44 75.0601C78.9 75.4601 76.88 78.3201 74.86 84.3401C72.84 90.3601 70.54 99.34 66.42 110.34C61.7208 123.587 53.9802 135.547 43.82 145.26C37.94 150.68 30.92 155 25.18 160.18C22.291 162.744 19.7913 165.715 17.76 169C15.7065 172.389 14.1633 176.062 13.18 179.9C11.216 187.472 11.7491 195.476 14.7 202.72C17.369 209.423 22.1877 215.051 28.4 218.72C34.1555 221.95 40.7405 223.398 47.32 222.88C53.2565 222.42 59.0654 220.917 64.48 218.44C72.6609 214.984 80.2105 210.192 86.82 204.26C91.56 200.04 94.06 197.42 94.5 197.8C94.94 198.18 93.2 201.32 88.94 206.36C82.7813 213.464 75.2417 219.241 66.78 223.34C60.8907 226.448 54.4752 228.435 47.86 229.2C39.9717 230.114 31.9918 228.608 24.98 224.88C17.2323 220.569 11.1757 213.758 7.79999 205.56C4.12442 196.843 3.41469 187.16 5.77999 178C6.95367 173.407 8.81468 169.017 11.3 164.98C13.7303 161.094 16.7228 157.589 20.18 154.58C23.3814 151.853 26.719 149.289 30.18 146.9C33.4 144.58 36.44 142.34 39.2 139.96C44.3927 135.397 48.941 130.149 52.72 124.36C56.0849 119.244 59.0216 113.859 61.5 108.26C66 98.0001 69.06 89.0001 72.16 83.1401C75.26 77.2801 78.14 74.7401 78.44 75.0601Z" fill="black"/>
<path d="M96.6197 220.381C96.4397 220.081 97.5797 219.121 99.6197 217.401C102.504 215.065 105.084 212.378 107.3 209.401C108.767 207.362 109.895 205.1 110.64 202.701C111.493 200.014 111.719 197.168 111.3 194.381C110.858 191.414 109.368 188.703 107.1 186.741C105.971 185.681 104.622 184.885 103.148 184.411C101.675 183.938 100.114 183.797 98.5797 184.001C98.0434 184.102 97.4889 184.04 96.9884 183.822C96.488 183.604 96.0646 183.241 95.7734 182.779C95.4821 182.318 95.3365 181.779 95.3555 181.234C95.3745 180.688 95.5571 180.161 95.8797 179.721V179.721C97.8619 177.016 99.2645 173.932 99.9997 170.661C100.772 167.35 100.619 163.891 99.5597 160.661C98.7711 158.133 97.3326 155.857 95.3881 154.06C93.4437 152.263 91.0614 151.008 88.4797 150.421C86.0629 150.034 83.5864 150.318 81.3197 151.241C79.2179 152.083 77.4194 153.539 76.1597 155.421V155.521C75.859 155.993 75.4099 156.351 74.883 156.54C74.3561 156.728 73.7815 156.736 73.2497 156.562C72.7179 156.387 72.2592 156.041 71.946 155.578C71.6327 155.114 71.4827 154.559 71.5197 154.001C71.6374 151.5 71.1667 149.007 70.1455 146.721C69.1243 144.435 67.581 142.421 65.6397 140.841C62.4784 138.339 58.4725 137.157 54.4597 137.541C51.7503 137.769 49.1197 138.566 46.7397 139.881C45.0597 140.801 44.1797 141.461 43.9597 141.241C43.7397 141.021 44.2797 140.041 45.8197 138.581C48.1448 136.524 50.9868 135.141 54.0397 134.581C56.2471 134.133 58.5176 134.092 60.7397 134.461C63.4113 134.899 65.9484 135.939 68.1597 137.501C70.83 139.391 72.9958 141.907 74.4673 144.829C75.9388 147.751 76.671 150.99 76.5997 154.261L71.8997 152.821C73.7363 149.942 76.3768 147.665 79.4944 146.271C82.6119 144.878 86.0697 144.429 89.4397 144.981C93.0451 145.677 96.3965 147.331 99.1416 149.77C101.887 152.209 103.924 155.342 105.04 158.841C106.453 163.089 106.64 167.65 105.58 172.001C104.622 176.019 102.822 179.789 100.3 183.061L97.6597 178.721C99.9874 178.408 102.356 178.627 104.587 179.362C106.817 180.096 108.853 181.327 110.54 182.961C113.589 185.761 115.528 189.567 116 193.681C116.356 197.178 115.869 200.71 114.58 203.981C113.502 206.723 111.952 209.254 110 211.461C107.361 214.489 104.197 217.016 100.66 218.921C98.2197 220.221 96.7597 220.641 96.6197 220.381Z" fill="black"/>
<path d="M18.1196 192.641C17.4596 191.761 18.4796 189.981 19.4396 187.341C20.717 184.165 21.3427 180.764 21.2796 177.341C21.1979 175.526 20.8751 173.731 20.3196 172.001C19.9996 170.919 19.4543 169.917 18.7196 169.061C18.1545 168.534 17.4672 168.156 16.7196 167.961C16.0396 167.761 15.3796 167.801 14.9796 167.461C14.5796 167.121 14.4996 166.281 15.4396 165.301C16.1324 164.673 16.9695 164.226 17.8767 163.999C18.7838 163.772 19.7328 163.773 20.6396 164.001C21.9238 164.372 23.1185 165.001 24.1503 165.851C25.1821 166.7 26.0293 167.752 26.6396 168.941C28.511 172.356 29.2483 176.277 28.7449 180.138C28.2416 183.999 26.5238 187.6 23.8396 190.421C21.1596 193.081 18.6796 193.441 18.1196 192.641Z" fill="black"/>
<path d="M40.1585 192.941C40.2585 191.841 42.9785 191.341 46.4385 189.621C48.4214 188.68 50.2599 187.461 51.8985 186.001C53.762 184.347 55.2313 182.297 56.1985 180.001C56.5317 179.192 56.6797 178.319 56.6316 177.446C56.5835 176.573 56.3406 175.721 55.9205 174.954C55.5005 174.187 54.9141 173.523 54.2043 173.012C53.4945 172.501 52.6793 172.156 51.8185 172.001C48.6185 171.401 46.2385 172.901 45.4385 172.201C45.0585 171.881 45.0785 170.941 45.9985 169.721C47.4232 168.006 49.4467 166.898 51.6585 166.621C53.2837 166.375 54.9444 166.525 56.4985 167.061C58.3166 167.702 59.9411 168.797 61.2185 170.241C62.6622 171.865 63.6248 173.86 63.9985 176.001C64.3742 178.263 64.1324 180.585 63.2985 182.721C61.9878 185.868 59.894 188.629 57.2162 190.74C54.5383 192.85 51.3653 194.241 47.9985 194.781C46.0005 195.136 43.9474 195.027 41.9985 194.461C40.7585 194.001 40.1185 193.441 40.1585 192.941Z" fill="black"/>
<path d="M43.1593 52.8198C47.7888 52.912 52.3784 51.9476 56.5793 49.9998C63.9993 45.9998 64.2793 36.0998 65.6793 27.6198L56.6593 20.0598L52.8393 16.2398C47.5533 15.3362 42.1174 16.0689 37.2593 18.3398C35.7739 18.8005 34.499 19.7708 33.6593 21.0798C33.0791 22.8437 33.2009 24.7633 33.9993 26.4398C36.7393 35.2798 39.7393 44.1398 43.1593 52.8198Z" fill="#FCFF78"/>
<path d="M87.6387 46.1196L68.5587 30.1197C67.3987 38.2997 67.1387 46.9396 59.7787 51.9396C55.6387 54.7596 50.1187 55.7196 44.4387 55.9396C48.2135 65.327 52.7486 74.3905 57.9987 83.0396C65.3987 84.7796 72.7787 85.0397 79.8387 80.2597C90.4787 73.0797 89.1387 57.6996 87.6387 46.1196Z" fill="#34E2AC"/>
<path d="M111.459 70.141C107.459 62.801 100.879 57.2411 94.4791 51.8611L91.219 49.1411C92.499 60.6011 92.619 74.041 83.3591 81.641C76.1591 87.641 68.2791 88.161 60.2791 86.761C62.8235 90.6568 65.581 94.4092 68.5391 98.001C72.5391 102.721 77.019 107.301 82.879 109.101C88.039 110.681 93.619 109.921 98.879 109.101C102.029 108.563 104.973 107.181 107.399 105.101C110.474 103.155 112.844 100.274 114.159 96.881C116.772 87.9559 115.804 78.3636 111.459 70.141V70.141Z" fill="#4AB6FF"/>
<path d="M44.4194 16.5201C44.2994 16.8001 43.3794 16.5201 41.7594 16.6601C39.4833 16.8858 37.3592 17.9054 35.7594 19.5401C34.5828 20.8686 33.7187 22.4439 33.2307 24.1501C32.7427 25.8564 32.6432 27.6503 32.9394 29.4001C33.3594 33.6401 35.7194 38.1601 38.9394 43.2001C45.2394 53.4401 52.6194 65.7001 60.7194 79.3601L66.9194 89.8401C68.8311 93.2971 71.1401 96.519 73.7994 99.4401C75.0327 100.754 76.4469 101.885 77.9994 102.8C79.6102 103.705 81.3406 104.379 83.1394 104.8C86.9498 105.575 90.895 105.361 94.5994 104.18C96.4722 103.605 98.266 102.799 99.9394 101.78C101.592 100.664 103.138 99.3985 104.559 98.0001C107.365 95.4499 109.501 92.2494 110.779 88.6801C113.199 81.8401 110.779 74.3401 106.379 68.6801C101.979 63.0201 95.9994 58.2601 90.6794 53.7601L75.4795 41.4001C56.7595 26.4401 44.9394 17.4001 45.4794 16.5001C46.0194 15.6001 58.9794 23.1401 78.6394 37.1001C83.5394 40.6001 88.8794 44.5001 94.5194 48.8001C100.159 53.1001 106.519 57.6401 111.859 64.4201C114.721 67.9596 116.837 72.0415 118.079 76.4201C118.706 78.7756 119.022 81.2028 119.019 83.6401C118.975 86.153 118.564 88.646 117.799 91.0401C116.209 95.8048 113.46 100.1 109.799 103.54C107.954 105.276 105.944 106.83 103.799 108.18C101.584 109.541 99.2048 110.616 96.7194 111.38C91.7507 112.957 86.4568 113.212 81.3594 112.12C78.8247 111.547 76.3861 110.611 74.1194 109.34C71.9007 108.067 69.8794 106.477 68.1194 104.62C65.0809 101.249 62.4619 97.5214 60.3194 93.5201L54.3194 82.8801C46.5594 69.0201 39.6594 56.4801 33.9594 45.9001C31.0594 40.6401 28.5194 35.1001 28.4394 29.6801C28.2583 27.3573 28.6296 25.0247 29.523 22.873C30.4164 20.7212 31.8064 18.8115 33.5794 17.3001C34.7088 16.3891 36.0172 15.726 37.4196 15.3538C38.822 14.9817 40.287 14.9089 41.7194 15.1401C43.7994 15.5401 44.5194 16.3401 44.4194 16.5201Z" fill="black"/>
<path d="M55.3187 78.1003C54.3987 78.6203 50.0187 72.2803 43.6787 61.5803C40.4987 56.2403 36.8387 49.8003 32.8787 42.6003C31.8787 40.8203 30.8787 38.9403 29.9387 36.8603C28.9064 34.6676 28.1216 32.3667 27.5987 30.0003C26.985 27.2541 26.985 24.4064 27.5987 21.6603C28.2782 18.5489 29.9484 15.7418 32.3587 13.6603C34.8861 11.651 38.0302 10.577 41.2587 10.6203C44.0868 10.6747 46.8674 11.3578 49.3987 12.6203C51.5873 13.6368 53.6649 14.8767 55.5987 16.3203C57.3987 17.6803 58.9787 18.9803 60.5987 20.3203C66.9987 25.4203 72.5987 30.1003 77.3987 34.1203C86.8387 42.1203 92.3387 47.5403 91.7187 48.3803C91.0987 49.2203 84.4187 45.3403 74.1387 38.3803C68.9987 34.9203 62.9787 30.6803 56.3387 25.8803C53.2196 23.3774 49.8715 21.1743 46.3387 19.3003C43.1187 17.8003 39.2587 17.7803 37.2587 19.5203C36.1259 20.5486 35.3428 21.9051 35.0187 23.4003C34.6504 25.0871 34.6504 26.8335 35.0187 28.5203C35.9624 32.3633 37.4011 36.0676 39.2987 39.5403C42.8787 46.8603 46.0187 53.5403 48.5587 59.1203C53.5587 70.3603 56.2387 77.6003 55.3187 78.1003Z" fill="black"/>
<path d="M40.3387 51.6603C40.8987 51.0003 43.2387 52.5603 46.9587 52.4003C49.1934 52.2627 51.3835 51.7135 53.4187 50.7803C54.6626 50.2338 55.8657 49.5989 57.0187 48.8803C58.1697 48.1641 59.2191 47.2963 60.1387 46.3003C63.3209 42.4867 64.9174 37.5969 64.5987 32.6403C64.4707 31.0583 64.1414 29.499 63.6187 28.0003C63.2587 26.8403 63.1187 26.0003 63.4387 25.8403C63.7587 25.6803 64.4787 25.8403 65.4387 26.7803C66.8896 28.1292 67.953 29.8417 68.5187 31.7403C69.3135 34.5437 69.464 37.4906 68.9587 40.3603C68.39 43.9924 66.77 47.3785 64.2987 50.1003C63.0032 51.5112 61.4909 52.7062 59.8187 53.6403C58.348 54.4569 56.8006 55.1268 55.1987 55.6403C52.4111 56.6039 49.4247 56.8447 46.5187 56.3403C44.5298 55.9843 42.6918 55.0444 41.2387 53.6403C40.3187 52.7203 39.9987 52.0003 40.3387 51.6603Z" fill="black"/>
<path d="M57.1594 79.221C57.5594 79.101 58.0994 79.961 58.9794 81.221C59.4453 81.9387 60.0344 82.5684 60.7194 83.081C61.602 83.6548 62.6111 84.0049 63.6594 84.101C64.3223 84.1978 64.99 84.2579 65.6594 84.281C66.3622 84.2951 67.0648 84.2483 67.7594 84.141C69.3824 83.8688 70.9625 83.3846 72.4594 82.701C76.0005 81.1413 79.1348 78.7872 81.6194 75.821C84.1018 72.8267 85.8973 69.3244 86.8794 65.561C87.6833 62.3761 88.0997 59.1058 88.1194 55.821C88.1194 50.301 86.1194 47.001 86.8794 46.521C87.1794 46.321 88.0794 46.841 89.1794 48.281C90.7019 50.3869 91.7152 52.8173 92.1394 55.381C92.7486 59.1474 92.7013 62.9908 91.9994 66.741C91.1271 71.4506 89.0613 75.8578 85.9994 79.541C82.9185 83.2343 78.9069 86.0376 74.3794 87.661C72.3767 88.3996 70.2719 88.8246 68.1394 88.921C67.1286 88.9576 66.1166 88.8906 65.1194 88.721C64.2834 88.5398 63.4613 88.2992 62.6594 88.001C61.0382 87.5264 59.5874 86.5962 58.4794 85.321C57.7078 84.3687 57.1793 83.243 56.9394 82.041C56.5794 80.301 56.7994 79.321 57.1594 79.221Z" fill="black"/>
<path d="M192.279 113.16C203.299 89.7798 196.959 36.2398 162.739 13.5598C154.607 22.9155 149.402 34.4535 147.77 46.7414C146.138 59.0293 148.151 71.5259 153.559 82.6798" fill="#FFC2DD"/>
<path d="M153.559 82.6606C153.179 82.8406 151.899 81.2406 150.179 77.9406C147.841 73.1354 146.217 68.0148 145.359 62.7406C143.963 54.678 144.18 46.4186 145.999 38.4406C148.342 28.3073 153.151 18.9092 159.999 11.0806V10.9806C160.583 10.3136 161.396 9.89001 162.277 9.79372C163.159 9.69743 164.044 9.93541 164.759 10.4606L168.639 13.3406C169.983 14.2675 171.254 15.2973 172.439 16.4206C174.936 18.6292 177.256 21.0298 179.379 23.6006C180.439 24.9006 181.579 26.1406 182.519 27.5006L185.279 31.5006C185.719 32.1806 186.199 32.8406 186.619 33.5006L187.779 35.6206L189.999 39.9006C191.299 42.7406 192.559 45.5606 193.639 48.3606L195.059 52.5806C195.551 53.9424 195.965 55.3313 196.299 56.7406C198.976 66.5058 200.149 76.6219 199.779 86.7406C199.652 93.5687 198.388 100.328 196.039 106.741C195.429 108.496 194.602 110.169 193.579 111.721C192.899 112.801 192.419 113.281 192.179 113.181C191.939 113.081 191.939 112.361 192.179 111.181C192.419 110.001 192.919 108.281 193.199 105.981C194.333 99.6477 194.735 93.2054 194.399 86.7806C193.994 77.2782 192.367 67.8675 189.559 58.7806C189.206 57.477 188.779 56.1949 188.279 54.9406L186.839 51.0606C185.779 48.4806 184.559 45.9206 183.319 43.3206L181.179 39.5206L180.099 37.5206C179.719 36.9006 179.279 36.3006 178.859 35.6806L176.439 32.0006C175.579 30.7806 174.439 29.6806 173.599 28.5006C171.705 26.1821 169.639 24.0093 167.419 22.0006C166.354 21.003 165.21 20.0934 163.999 19.2806L160.599 16.6606L165.539 16.0006C159.372 22.8873 154.87 31.0984 152.379 40.0006C150.365 47.1968 149.62 54.6888 150.179 62.1406C151.159 74.9006 154.619 82.2206 153.559 82.6606Z" fill="black"/>
<path d="M160.499 140.75C169.6 128.522 167.798 111.777 156.474 103.349C145.15 94.9204 128.592 98.0005 119.491 110.228C110.39 122.456 112.192 139.201 123.516 147.63C134.84 156.058 151.398 152.978 160.499 140.75Z" fill="#B8E7FF"/>
<path d="M162.759 142.441C158.171 148.677 151.526 153.09 143.999 154.901C140.159 155.817 136.175 155.959 132.279 155.321C128.292 154.647 124.502 153.104 121.179 150.801C117.818 148.434 115.001 145.377 112.914 141.835C110.828 138.294 109.52 134.348 109.079 130.261C108.596 126.153 108.908 121.99 109.999 118.001C112.207 110.048 117.298 103.203 124.279 98.8006C127.748 96.6108 131.604 95.1038 135.639 94.3606C139.683 93.6092 143.84 93.7289 147.834 94.7118C151.828 95.6948 155.566 97.5183 158.799 100.061C161.961 102.584 164.529 105.773 166.319 109.401C168.048 112.947 169.054 116.802 169.279 120.741C169.751 128.519 167.439 136.211 162.759 142.441ZM158.219 139.061C160.068 136.515 161.455 133.666 162.319 130.641C163.141 127.641 163.379 124.51 163.019 121.421C162.675 118.434 161.692 115.558 160.135 112.986C158.578 110.415 156.485 108.209 153.999 106.521C151.593 104.936 148.879 103.879 146.035 103.417C143.192 102.955 140.283 103.099 137.499 103.841C131.901 105.304 126.972 108.636 123.527 113.285C120.083 117.933 118.33 123.619 118.559 129.401C118.652 132.279 119.353 135.104 120.614 137.693C121.876 140.281 123.67 142.574 125.879 144.421C128.212 146.297 130.922 147.651 133.824 148.389C136.726 149.128 139.752 149.234 142.699 148.701C145.765 148.159 148.699 147.032 151.339 145.381C153.985 143.686 156.314 141.54 158.219 139.041V139.061Z" fill="black"/>
<path d="M150.762 132.409C155.441 122.832 151.76 111.416 142.541 106.911C133.321 102.407 122.053 106.519 117.374 116.096C112.695 125.673 116.375 137.088 125.595 141.593C134.815 146.098 146.083 141.986 150.762 132.409Z" fill="black"/>
<path d="M136.243 123.593C137.112 117.863 133.365 112.543 127.876 111.711C122.386 110.88 117.232 114.851 116.364 120.581C115.496 126.311 119.242 131.63 124.732 132.462C130.221 133.294 135.375 129.323 136.243 123.593Z" fill="white"/>
<path d="M148.779 142.54C153.209 142.54 156.799 138.798 156.799 134.18C156.799 129.563 153.209 125.821 148.779 125.821C144.35 125.821 140.759 129.563 140.759 134.18C140.759 138.798 144.35 142.54 148.779 142.54Z" fill="white"/>
<path d="M166 84.1398C165.22 83.7598 166.48 79.9798 167.52 73.8598L167.92 71.4598L168.22 68.8198C168.5 67.0198 168.54 65.0398 168.7 62.9998C168.888 58.54 168.828 54.073 168.52 49.6198C167.918 41.5149 166.579 33.4817 164.52 25.6198C162.94 19.6198 161.6 15.7998 162.34 15.3798C163.08 14.9598 165.66 18.1998 168.34 24.2798C171.724 32.219 173.752 40.6696 174.34 49.2798C174.648 54.0006 174.534 58.7393 174 63.4398C173.66 65.6198 173.44 67.6998 172.94 69.5998L172.28 72.3598L171.48 74.8598C169.24 81.1998 166.58 84.4798 166 84.1398Z" fill="black"/>
<path d="M15.3395 210.58C16.3395 209.96 19.3395 214.3 26.3395 218C30.3643 220.097 34.7341 221.452 39.2395 222C44.765 222.604 50.3552 222.128 55.6995 220.6C67.2995 217.4 76.4195 210.6 82.7995 205.32C89.1795 200.04 93.1195 196.48 93.9595 197.18C94.7995 197.88 92.2795 202.6 86.5395 209.18C83.1219 213.054 79.2775 216.529 75.0795 219.54C69.8202 223.332 63.9383 226.175 57.6995 227.94C51.3268 229.76 44.6219 230.095 38.0995 228.92C32.7682 227.916 27.7348 225.714 23.3795 222.48C20.4651 220.343 18.0325 217.618 16.2395 214.48C15.0795 212.28 14.9195 210.84 15.3395 210.58Z" fill="black"/>
<g style="mix-blend-mode:multiply">
<path d="M12.5798 204.661C21.8804 211.041 32.9796 214.276 44.2517 213.891C55.5238 213.506 66.3764 209.521 75.2198 202.521C78.2398 199.811 81.4478 197.318 84.8198 195.061C86.519 193.947 88.4403 193.216 90.4504 192.919C92.4604 192.622 94.511 192.766 96.4598 193.341C98.4624 194.209 100.182 195.621 101.422 197.417C102.663 199.213 103.376 201.321 103.48 203.501C103.597 207.874 102.118 212.139 99.3198 215.501C96.5241 218.841 93.2163 221.717 89.5198 224.021C78.4998 231.421 65.1998 237.061 52.1798 234.521C45.0798 233.141 38.6598 229.421 32.4198 225.781C29.6146 224.233 26.9392 222.46 24.4198 220.481C20.2923 217.06 17.1626 212.59 15.3598 207.541" fill="#FF85C6"/>
</g>
<g style="mix-blend-mode:multiply">
<path d="M171.619 69.1006C171.576 73.0347 170.781 76.9245 169.279 80.5606C168.567 82.3115 167.426 83.8554 165.962 85.0506C164.498 86.2458 162.757 87.0538 160.899 87.4006C156.539 87.8406 152.439 84.4806 150.419 80.3006C148.66 75.9263 147.835 71.2324 147.999 66.5206C147.659 53.5606 148.799 39.9806 153.999 28.1406C155.999 23.4806 159.999 14.3006 164.299 22.1406C167.599 28.1406 169.019 36.6806 170.179 43.5206C171.621 51.9657 172.104 60.5469 171.619 69.1006Z" fill="#FFC2DD"/>
</g>
<g style="mix-blend-mode:overlay">
<path d="M28.6594 20.7601C34.3794 12.0001 102.519 104 102.519 104L96.3794 109.48L73.1994 106L28.6594 20.7601Z" fill="white"/>
</g>
<g style="mix-blend-mode:multiply" opacity="0.67">
<path d="M197.539 75.0609C211.759 87.2609 218.259 110.341 213.219 128.401C232.039 113.561 227.659 153.081 213.219 167.301C216.899 165.881 224.299 170.001 226.639 173.181C228.779 176.524 229.955 180.392 230.039 184.361C230.782 192.864 229.336 201.415 225.839 209.201C217.419 227.661 186.679 228.641 177.559 221.961C175.779 228.961 170.079 234.641 160.399 236.481C172.559 243.341 182.959 242.981 192.239 232.481C203.799 235.821 223.259 232.481 233.379 226.081C243.499 219.681 249.899 206.941 247.379 195.201C245.619 187.201 240.159 180.501 237.679 172.681C234.699 163.301 236.219 153.121 238.119 143.461C240.019 133.801 242.279 123.921 240.679 114.201C239.079 104.481 232.539 94.8209 222.879 92.9209C223.123 82.4821 220.047 72.2352 214.095 63.656C208.143 55.0767 199.622 48.6078 189.759 45.1809L196.999 73.3409" fill="#7E53C1"/>
</g>
<g style="mix-blend-mode:multiply">
<path d="M191.419 60.5803C192.903 74.3662 192.132 88.3018 189.139 101.84C185.879 115.28 178.999 124.1 168.279 140.7C150.339 168.46 113.639 196 113.639 196L110.879 210.52C110.879 210.52 150.279 198.52 162.379 190.12C164.999 185.38 166.199 174.12 166.819 168.7C167.994 158.712 171.592 149.162 177.299 140.88C181.819 134.32 186.879 129.16 190.919 122.28C196.493 112.419 199.208 101.199 198.759 89.8803C198.045 78.8552 196.031 67.953 192.759 57.4003" fill="#FFC2DD"/>
</g>
<path d="M177.999 181.44C177.639 181.44 176.999 180.38 176.459 178.14C175.792 174.928 175.697 171.624 176.179 168.38C176.851 163.613 178.198 158.967 180.179 154.58C182.573 149.341 185.34 144.282 188.459 139.44C191.639 134.36 194.599 129.58 196.919 125.1C199.023 121.189 200.726 117.074 201.999 112.82C203.999 105.58 203.539 100.7 204.439 100.56C204.799 100.56 205.399 101.64 205.879 103.9C206.441 107.122 206.441 110.417 205.879 113.64C205.099 118.388 203.665 123.005 201.619 127.36C199.17 132.567 196.378 137.604 193.259 142.44C190.079 147.5 187.259 152.3 184.899 156.8C182.851 160.724 181.222 164.854 180.039 169.12C178.179 176.4 178.879 181.28 177.999 181.44Z" fill="#C676FF"/>
<path d="M192.42 180.821C191.68 180.821 190.68 178.521 190.42 174.481C189.824 163.804 193.468 153.324 200.56 145.321C203.32 142.361 205.58 141.121 206.12 141.641C207.32 142.781 201.58 150.201 198 160.781C194.42 171.361 194 180.661 192.42 180.821Z" fill="#C676FF"/>
<path d="M77.9991 90.8603C77.8391 90.0403 79.6991 89.0803 82.2391 87.3603C85.471 85.2507 88.2626 82.5337 90.4591 79.3603C92.542 76.1133 93.9752 72.4931 94.6791 68.7003C95.2991 65.7003 95.4591 63.6003 96.2591 63.4403C97.0591 63.2803 98.2591 65.2002 98.7191 68.8403C99.1358 73.6596 97.9073 78.478 95.2341 82.5096C92.5609 86.5413 88.6006 89.5483 83.9991 91.0403C80.4391 92.0003 78.1391 91.6003 77.9991 90.8603Z" fill="white"/>
<path d="M54.8794 59.3008C54.8794 57.7208 60.5394 56.8808 64.8794 52.7008C69.2194 48.5208 70.5994 43.1408 72.1994 43.1608C72.9594 43.1608 73.7394 44.7808 73.5394 47.5008C73.1241 51.0977 71.4402 54.4286 68.7899 56.8956C66.1397 59.3626 62.6968 60.8039 59.0794 60.9608C56.3794 60.9608 54.8394 60.0008 54.8794 59.3008Z" fill="white"/>
<path d="M41.4591 32.28C45.4024 32.28 48.5991 29.0833 48.5991 25.14C48.5991 21.1967 45.4024 18 41.4591 18C37.5158 18 34.3191 21.1967 34.3191 25.14C34.3191 29.0833 37.5158 32.28 41.4591 32.28Z" fill="white"/>
<path d="M212.96 184.341C213.18 184.061 214.16 184.241 215.48 185.401C217.282 187.166 218.426 189.495 218.72 192.001C219.268 195.771 218.368 199.609 216.2 202.741C213.547 206.398 209.8 209.116 205.5 210.501C198.097 212.963 190.045 212.593 182.9 209.461C177.56 207.041 175.22 204.161 175.66 203.601C176.1 203.041 179.18 204.421 184.22 205.601C187.128 206.307 190.107 206.676 193.1 206.701C196.672 206.755 200.229 206.207 203.62 205.081C206.871 204.053 209.772 202.142 212 199.561C213.675 197.472 214.629 194.897 214.72 192.221C214.92 187.441 212.38 184.981 212.96 184.341Z" fill="#C676FF"/>
<path d="M163.178 224.581C162.598 225.061 160.798 224.181 158.978 221.621C156.702 218.156 155.66 214.024 156.023 209.893C156.386 205.763 158.132 201.876 160.978 198.861C163.198 196.641 165.138 196.081 165.618 196.641C166.098 197.201 165.318 198.841 164.278 201.181C161.452 207.003 160.888 213.667 162.698 219.881C163.238 222.381 163.818 224.001 163.178 224.581Z" fill="#C676FF"/>
<path d="M162.699 9.76033C163.42 9.77689 164.118 10.0143 164.699 10.4403L168.579 13.3203C169.924 14.2472 171.194 15.277 172.379 16.4003C174.876 18.6089 177.197 21.0096 179.319 23.5803C180.379 24.8803 181.519 26.1203 182.459 27.4803L185.219 31.4803C185.659 32.1603 186.139 32.8203 186.559 33.4803L187.719 35.6003L189.439 38.7803C191.439 39.7203 193.539 40.7803 195.439 41.8803C201.751 45.5168 207.465 50.1039 212.379 55.4803C217.56 61.0632 221.56 67.6345 224.139 74.8003C225.931 79.6615 226.773 84.8216 226.619 90.0003C229.33 91.0795 231.829 92.6301 233.999 94.5803C236.865 97.1586 239.202 100.27 240.879 103.74C243.988 110.206 245.608 117.286 245.619 124.46C245.667 127.916 245.359 131.368 244.699 134.76C244.023 138.039 243.039 141.247 241.759 144.34C239.459 150.22 237.219 155.46 237.359 160.5C237.669 165.78 239.116 170.931 241.599 175.6C243.879 180.54 246.539 185.42 248.359 190.68C249.32 193.299 249.991 196.015 250.359 198.78C250.688 201.477 250.688 204.204 250.359 206.9C249.716 211.906 248.019 216.719 245.379 221.02C243.719 223.69 241.7 226.12 239.379 228.24C238.959 228.66 238.559 229.1 238.119 229.5C234.426 232.652 230.181 235.093 225.599 236.7C220.679 238.498 215.54 239.628 210.319 240.06C209.059 240.06 207.779 240.2 206.479 240.2C201.848 240.294 197.249 239.415 192.979 237.62V237.62C189.257 240.804 184.793 242.998 179.999 244C178.281 244.345 176.532 244.52 174.779 244.52C173.062 244.519 171.349 244.365 169.659 244.06C168.752 244.015 167.849 243.902 166.959 243.72C161.389 242.713 156.325 239.842 152.599 235.58C148.455 230.73 145.759 224.811 144.819 218.5C143.911 212.437 144.779 206.24 147.319 200.66C145.139 201.48 142.839 202.26 140.419 202.94C136.579 204.04 132.599 205.06 128.679 206.5C126.687 207.215 124.743 208.057 122.859 209.02C120.888 210.049 118.978 211.191 117.139 212.44C113.139 215.02 109.139 217.84 104.939 220.74C96.9828 226.596 88.313 231.415 79.1393 235.08C75.0092 236.63 70.7346 237.762 66.3793 238.46C64.0805 238.789 61.7614 238.956 59.4393 238.96C57.8828 238.962 56.3273 238.882 54.7793 238.72C49.1641 238.248 43.7582 236.37 39.0593 233.26C35.8393 230.98 34.6193 229.1 34.9193 228.76C34.9653 228.749 35.0132 228.749 35.0593 228.76C31.565 228.026 28.1963 226.786 25.0593 225.08C17.3116 220.77 11.255 213.959 7.87926 205.76C4.13223 196.993 3.3938 187.232 5.77926 178C6.95294 173.407 8.81394 169.018 11.2993 164.98C13.7296 161.094 16.7221 157.59 20.1793 154.58C23.3807 151.853 26.7183 149.29 30.1793 146.9C33.3993 144.58 36.4393 142.34 39.1993 139.96C44.392 135.397 48.9403 130.149 52.7193 124.36C56.0841 119.245 59.0208 113.86 61.4993 108.26C62.7193 105.5 63.8193 102.86 64.8593 100.26C63.2967 98.0491 61.8482 95.7594 60.5193 93.4003L54.5193 82.7603C46.7593 68.9003 39.8593 56.3603 34.1593 45.7803C32.5238 42.9503 31.1321 39.9863 29.9993 36.9203V36.9203C28.9422 34.711 28.1371 32.3897 27.5993 30.0003C26.9856 27.2542 26.9856 24.4065 27.5993 21.6603C28.2787 18.549 29.949 15.7419 32.3593 13.6603C34.8706 11.6641 37.9913 10.5909 41.1993 10.6203H41.3193C44.0998 10.6959 46.8303 11.3785 49.3193 12.6203C51.5355 13.632 53.6402 14.872 55.5993 16.3203C57.3993 17.6803 58.9793 18.9803 60.5993 20.3203C66.9993 25.4203 72.5993 30.1003 77.3993 34.1203C82.6593 38.6003 86.6993 42.2603 89.1193 44.7603L94.5993 48.8003L95.1793 49.2403C95.5479 46.5478 96.0619 43.8773 96.7193 41.2403C98.3044 34.6826 100.619 28.323 103.619 22.2803C104.216 20.9458 104.884 19.6439 105.619 18.3803L107.779 14.6003C108.018 14.18 108.338 13.8108 108.719 13.5139C109.101 13.217 109.537 12.9983 110.003 12.8701C110.47 12.742 110.956 12.7069 111.436 12.767C111.916 12.8271 112.379 12.9811 112.799 13.2203L113.159 13.4603C118.15 17.1467 122.832 21.2335 127.159 25.6803C130.017 28.6669 132.689 31.8261 135.159 35.1403C139.217 34.2004 143.333 33.5322 147.479 33.1403C150.139 25.0253 154.396 17.5247 159.999 11.0803V10.9803C160.329 10.5981 160.737 10.2913 161.196 10.0808C161.655 9.8703 162.154 9.761 162.659 9.76033H162.699ZM62.9593 41.7603C63.8002 39.7066 64.3131 37.5334 64.4793 35.3203C64.1478 37.5046 63.6395 39.6584 62.9593 41.7603V41.7603ZM53.3593 134.72L53.7993 134.62C54.0793 134.1 54.3393 133.56 54.5993 133.04L53.3793 134.72H53.3593ZM49.5793 139.4C50.2275 139.031 50.8951 138.697 51.5793 138.4L51.8793 137.94C51.3793 138.06 50.9193 138.18 50.4793 138.32L49.5593 139.38L49.5793 139.4ZM36.3993 228.86H36.2993H36.3993ZM162.699 6.86033C161.785 6.85769 160.88 7.05294 160.048 7.43269C159.216 7.81243 158.476 8.36768 157.879 9.06033V9.16033C152.478 15.4384 148.281 22.6593 145.499 30.4603C142.459 30.8203 139.499 31.3203 136.439 31.9603C134.23 29.0813 131.867 26.3239 129.359 23.7003C124.919 19.1582 120.116 14.9845 114.999 11.2203V11.2203L114.339 10.8003C113.595 10.3754 112.774 10.1015 111.924 9.99417C111.073 9.88685 110.21 9.94826 109.383 10.1749C108.557 10.4015 107.783 10.7889 107.106 11.3149C106.429 11.8409 105.863 12.4952 105.439 13.2403L103.219 16.9603C102.431 18.2559 101.711 19.591 101.059 20.9603C97.9768 27.1936 95.6084 33.7552 93.9993 40.5203C93.6993 41.7003 93.4193 42.9003 93.1793 44.1603L91.0393 42.5603C88.5193 40.0003 84.5593 36.4203 79.2593 32.0003C74.4393 28.0003 68.7593 23.2403 62.3793 18.1403L61.1193 17.1403C59.9993 16.0003 58.6793 15.1003 57.3193 14.0003C55.2291 12.4406 52.9839 11.1002 50.6193 10.0003C47.7224 8.60675 44.5538 7.86923 41.3393 7.84033L41.2193 10.6803V7.74033C37.3434 7.69446 33.5732 9.00308 30.5593 11.4403C27.6876 13.9037 25.6884 17.2288 24.8593 20.9203C24.1555 24.0749 24.1555 27.3458 24.8593 30.5003C25.4128 33.085 26.2513 35.6004 27.3593 38.0003C28.5148 41.2019 29.9399 44.2997 31.6193 47.2603C37.3993 58.0003 44.2593 70.4203 51.9993 84.2403L57.9993 94.9003C58.9393 96.5403 60.1593 98.6003 61.5993 100.72C60.6193 103.12 59.7393 105.18 58.8593 107.14C56.4497 112.593 53.5933 117.838 50.3193 122.82C46.684 128.397 42.3034 133.45 37.2993 137.84C34.4993 140.26 31.3993 142.54 28.4793 144.64L27.5393 145.32C24.3318 147.554 21.2411 149.95 18.2793 152.5C14.608 155.692 11.4331 159.413 8.85926 163.54C6.22045 167.818 4.24471 172.471 2.99926 177.34C0.484247 187.096 1.25753 197.409 5.19926 206.68C8.84083 215.459 15.3379 222.753 23.6393 227.38C26.5063 228.935 29.5567 230.124 32.7193 230.92C33.9917 232.699 35.5776 234.23 37.3993 235.44C42.4983 238.828 48.362 240.891 54.4593 241.44C56.1069 241.613 57.7625 241.7 59.4193 241.7C61.8684 241.698 64.3144 241.524 66.7393 241.18C71.2669 240.439 75.709 239.246 79.9993 237.62C89.4004 233.857 98.2903 228.925 106.459 222.94L108.899 221.26C112.259 218.94 115.439 216.74 118.599 214.68C120.355 213.489 122.178 212.401 124.059 211.42C125.839 210.51 127.677 209.715 129.559 209.04C132.539 207.96 135.559 207.04 138.579 206.26L141.119 205.54L142.659 205.08C141.476 209.569 141.231 214.253 141.939 218.84C142.943 225.692 145.878 232.116 150.399 237.36C154.556 242.098 160.196 245.285 166.399 246.4C167.349 246.596 168.311 246.723 169.279 246.78C171.089 247.098 172.922 247.259 174.759 247.26C176.7 247.264 178.636 247.077 180.539 246.7C185.249 245.769 189.682 243.772 193.499 240.86C197.696 242.383 202.135 243.129 206.599 243.06C207.859 243.06 209.179 243.06 210.599 242.92C216.066 242.457 221.447 241.267 226.599 239.38C231.522 237.651 236.08 235.019 240.039 231.62C240.419 231.28 240.739 230.94 241.059 230.6L241.379 230.26C243.854 227.975 246.007 225.365 247.779 222.5C250.626 217.849 252.459 212.649 253.159 207.24C253.515 204.318 253.515 201.363 253.159 198.44C252.81 195.476 252.139 192.559 251.159 189.74C249.754 185.921 248.125 182.188 246.279 178.56C245.599 177.16 244.919 175.78 244.279 174.38C241.969 170.05 240.605 165.278 240.279 160.38C240.159 156.2 241.919 151.72 243.979 146.54L244.499 145.24C245.849 141.979 246.887 138.597 247.599 135.14C248.296 131.584 248.617 127.964 248.559 124.34C248.549 116.722 246.826 109.203 243.519 102.34C241.673 98.5526 239.113 95.1571 235.979 92.3403C234.034 90.6075 231.852 89.1597 229.499 88.0403C229.426 83.2547 228.575 78.5128 226.979 74.0003C224.276 66.4772 220.078 59.5788 214.639 53.7203C209.53 48.1216 203.586 43.3454 197.019 39.5603C195.379 38.6203 193.619 37.7003 191.559 36.7403L191.159 35.9803L190.299 34.4003L189.139 32.2803C188.839 31.7803 188.519 31.3003 188.199 30.8203L187.679 30.0003L184.899 25.8803C184.179 24.8403 183.419 23.8803 182.659 23.0603L181.599 21.8003C179.775 19.5091 177.768 17.3688 175.599 15.4003L174.539 14.3803C173.55 13.4045 172.479 12.5146 171.339 11.7203L170.459 11.0603L167.259 8.74033L166.499 8.18033C165.405 7.37216 164.08 6.93741 162.719 6.94033L162.699 6.86033Z" fill="white"/>
</svg>
